<svg width="20" height="20" viewBox="0 0 20 20" fill="none" xmlns="http://www.w3.org/2000/svg">
<g clip-path="url(#clip0_173_4882)">
<path d="M17.9965 9.93813H16.584C16.2914 9.93813 16.0543 10.1753 16.0543 10.4678V16.908C16.0543 17.2499 15.7761 17.528 15.4342 17.528H3.09169C2.74993 17.528 2.47194 17.2499 2.47194 16.908V4.56568C2.47194 4.22378 2.74993 3.94558 3.09169 3.94558H9.86164C10.1542 3.94558 10.3913 3.70841 10.3913 3.41587V2.00334C10.3913 1.7108 10.1542 1.47363 9.86164 1.47363H3.09169C1.3869 1.47363 0 2.86075 0 4.56568V16.9081C0 18.613 1.38697 20 3.09169 20H15.4342C17.1391 20 18.5262 18.613 18.5262 16.9081V10.4679C18.5262 10.1753 18.2891 9.93813 17.9965 9.93813Z" fill="#0A0A0A"/>
<path d="M19.471 0H13.8525C13.5599 0 13.3228 0.237165 13.3228 0.529702V1.94224C13.3228 2.23478 13.5599 2.47194 13.8525 2.47194H15.7809L8.52429 9.72837C8.31742 9.93523 8.31742 10.2706 8.52429 10.4775L9.5231 11.4764C9.62247 11.5758 9.75715 11.6316 9.8977 11.6316C10.0382 11.6316 10.1729 11.5758 10.2722 11.4764L17.5288 4.21982V6.14815C17.5288 6.44068 17.766 6.67785 18.0585 6.67785H19.471C19.7636 6.67785 20.0007 6.44068 20.0007 6.14815V0.529702C20.0007 0.237165 19.7636 0 19.471 0Z" fill="#0A0A0A"/>
</g>
<defs>
<clipPath id="clip0_173_4882">
<rect width="20" height="20" fill="white"/>
</clipPath>
</defs>
</svg>
