<svg width="88" height="88" viewBox="0 0 88 88" fill="none" xmlns="http://www.w3.org/2000/svg">
<circle cx="44" cy="44" r="42" fill="#CD7B2E" stroke="white" stroke-width="4"/>
<path d="M57.93 38.6802C56.7575 37.3852 54.99 36.6327 52.54 36.3702V35.0402C52.54 32.6427 51.525 30.3327 49.74 28.7227C47.9375 27.0777 45.5925 26.3077 43.16 26.5352C38.9775 26.9377 35.46 30.9802 35.46 35.3552V36.3702C33.01 36.6327 31.2425 37.3852 30.07 38.6802C28.3725 40.5702 28.425 43.0902 28.6175 44.8402L29.8425 54.5877C30.21 58.0002 31.5925 61.5002 39.1175 61.5002H48.8825C56.4075 61.5002 57.79 58.0002 58.1575 54.6052L59.3825 44.8227C59.575 43.0902 59.6275 40.5702 57.93 38.6802ZM43.405 28.9677C45.155 28.8102 46.8175 29.3527 48.1125 30.5252C49.39 31.6802 50.1075 33.3252 50.1075 35.0402V36.2652H37.8925V35.3552C37.8925 32.2402 40.465 29.2477 43.405 28.9677ZM44 55.5152C40.3425 55.5152 37.3675 52.5402 37.3675 48.8827C37.3675 45.2252 40.3425 42.2502 44 42.2502C47.6575 42.2502 50.6325 45.2252 50.6325 48.8827C50.6325 52.5402 47.6575 55.5152 44 55.5152Z" fill="white"/>
<path d="M42.25 52.0151C41.8125 52.0151 41.375 51.7876 41.13 51.3851C40.7625 50.7726 40.955 49.9501 41.585 49.5826L43.1425 48.6551V46.7651C43.1425 46.0476 43.7375 45.4526 44.455 45.4526C45.1725 45.4526 45.75 46.0301 45.75 46.7651V49.3901C45.75 49.8451 45.505 50.2826 45.12 50.5101L42.9325 51.8226C42.7225 51.9451 42.4775 52.0151 42.25 52.0151Z" fill="white"/>
</svg>
