<svg width="65" height="65" viewBox="0 0 65 65" fill="none" xmlns="http://www.w3.org/2000/svg">
<path d="M51.4584 29.7913H35.2084V13.5413C35.2084 12.823 34.923 12.1342 34.4151 11.6263C33.9072 11.1183 33.2183 10.833 32.5 10.833C31.7817 10.833 31.0929 11.1183 30.585 11.6263C30.0771 12.1342 29.7917 12.823 29.7917 13.5413V29.7913H13.5417C12.8234 29.7913 12.1345 30.0767 11.6266 30.5846C11.1187 31.0925 10.8334 31.7814 10.8334 32.4997C10.8334 33.218 11.1187 33.9068 11.6266 34.4148C12.1345 34.9227 12.8234 35.208 13.5417 35.208H29.7917V51.458C29.7917 52.1763 30.0771 52.8652 30.585 53.3731C31.0929 53.881 31.7817 54.1663 32.5 54.1663C33.2183 54.1663 33.9072 53.881 34.4151 53.3731C34.923 52.8652 35.2084 52.1763 35.2084 51.458V35.208H51.4584C52.1767 35.208 52.8655 34.9227 53.3735 34.4148C53.8814 33.9068 54.1667 33.218 54.1667 32.4997C54.1667 31.7814 53.8814 31.0925 53.3735 30.5846C52.8655 30.0767 52.1767 29.7913 51.4584 29.7913Z" fill="white"/>
</svg>
