<svg width="28" height="26" viewBox="0 0 28 26" fill="none" xmlns="http://www.w3.org/2000/svg">
<path d="M9.88001 16.25C9.88001 18.0456 8.44156 19.5 6.66559 19.5C4.88963 19.5 3.45117 18.0456 3.45117 16.25C3.45117 14.4544 4.88963 13 6.66559 13C8.44156 13 9.88001 14.4544 9.88001 16.25Z" fill="#2E90FA"/>
<path d="M0.238281 24.2666C0.238281 21.9613 4.5215 20.7999 6.66712 20.7999C8.81275 20.7999 13.096 21.9613 13.096 24.2666V25.9999H0.238281V24.2666Z" fill="#2E90FA"/>
<path d="M24.0245 16.25C24.0245 18.0456 22.5861 19.5 20.8101 19.5C19.0342 19.5 17.5957 18.0456 17.5957 16.25C17.5957 14.4544 19.0342 13 20.8101 13C22.5861 13 24.0245 14.4544 24.0245 16.25Z" fill="#2E90FA"/>
<path d="M16.3091 15.6C16.3091 17.0365 15.1583 18.2 13.7376 18.2C12.3168 18.2 11.166 17.0365 11.166 15.6C11.166 14.1635 12.3168 13 13.7376 13C15.1583 13 16.3091 14.1635 16.3091 15.6Z" fill="#2E90FA"/>
<path d="M14.3789 24.2666C14.3789 21.9613 18.6621 20.7999 20.8077 20.7999C22.9534 20.7999 27.2366 21.9613 27.2366 24.2666V25.9999H14.3789V24.2666Z" fill="#2E90FA"/>
<path fill-rule="evenodd" clip-rule="evenodd" d="M16.7921 20.2702C16.6205 20.334 16.4512 20.4017 16.2853 20.4734C15.5324 20.7987 14.7721 21.2382 14.1815 21.826C14.0233 21.9835 13.8732 22.1562 13.7379 22.3437C13.6025 22.1562 13.4524 21.9835 13.2942 21.826C12.7036 21.2382 11.9433 20.7987 11.1904 20.4734C11.0245 20.4017 10.8552 20.334 10.6836 20.2702C11.6624 19.7575 12.9213 19.5 13.7379 19.5C14.5544 19.5 15.8132 19.7575 16.7921 20.2702Z" fill="#2E90FA"/>
<path fill-rule="evenodd" clip-rule="evenodd" d="M10.5829 9.74998C13.9559 9.74998 16.6903 7.56735 16.6903 4.87499C16.6903 2.1826 13.9559 0 10.5829 0C7.20987 0 4.4755 2.1826 4.4755 4.87499C4.4755 5.52902 4.63685 6.15295 4.9295 6.72281C4.28311 7.52387 4.1248 8.7367 4.09403 9.49902C4.08283 9.77643 4.41413 9.91833 4.63411 9.75213C5.07531 9.41874 5.77599 8.9666 6.68618 8.62893C7.7436 9.32911 9.10169 9.74998 10.5829 9.74998Z" fill="#2E90FA"/>
<path fill-rule="evenodd" clip-rule="evenodd" d="M15.2598 9.66256C16.9218 8.53026 17.9832 6.80614 17.9832 4.875C17.9832 4.35546 17.9064 3.8509 17.7617 3.36883C18.1411 3.29123 18.5383 3.25 18.9475 3.25C21.6104 3.25 23.7692 4.99609 23.7692 7.14999C23.7692 7.76645 23.5924 8.34944 23.2775 8.86774C23.5748 9.37695 23.6805 10.0154 23.7149 10.4959C23.7346 10.7728 23.4031 10.918 23.178 10.7589C22.8995 10.5619 22.5201 10.3304 22.0545 10.1325C21.2153 10.705 20.1312 11.05 18.9475 11.05C17.4681 11.05 16.1442 10.511 15.2598 9.66256Z" fill="#2E90FA"/>
</svg>
